# xmcd
#
# Track frame offsets: 
#        150
#        11957
#        34483
#        50776
#        67035
#        78636
#        92325
#        108563
#        123602
#        136742
#        146414
#        160785
#        169663
#        182811
#        198255
#        212715
#        245536
#        254447
#        267790
#        279053
#
# Disc length: 3897 seconds
#
# Revision: 0
# Processed by: cddbd v1.4PL0 Copyright (c) Steve Scherf et al.
# Submitted via: ExactAudioCopy v0.95a3
#
DISCID=250f3714
DTITLE=Various Artist - When I Fall In Love
DYEAR=1900
DGENRE=Ballad
TTITLE0=Peggy Lee - I'm Beginning To See The Light
TTITLE1=Carmen McRae - Sweet Alibis
TTITLE2=Lena Horne - Every Time We Say Goodbye
TTITLE3=Judy Garland - Zing Went The Strings Of My Heart
TTITLE4=Patsy Cline - Walkin' After Midnight
TTITLE5=Sarah Vaughan - Misty
TTITLE6=Della Reese - Stormy Weather
TTITLE7=Ella Fitzgerald - I Got A Guy
TTITLE8=Sarah Vaughan - That Old Black Magic
TTITLE9=June Christy - Mister Wonderful
TTITLE10=Judy Garland - You Made Me Love You
TTITLE11=Peggy Lee - Gone With The Wind
TTITLE12=Marlene Dietrich - Falling In Love Again
TTITLE13=Della Reese - When I Fall In Love
TTITLE14=Lena Horne - Ours
TTITLE15=Carmen McRae - I WOn't Last A Day Without You
TTITLE16=Della Reese - All Of Me
TTITLE17=Marlene Dietrich - You Do Something To Me
TTITLE18=Patsy Cline - Just Out Of Reach
TTITLE19=Ella Fitzgerald - T'Aint What You Do
EXTD=
EXTT0=
EXTT1=
EXTT2=
EXTT3=
EXTT4=
EXTT5=
EXTT6=
EXTT7=
EXTT8=
EXTT9=
EXTT10=
EXTT11=
EXTT12=
EXTT13=
EXTT14=
EXTT15=
EXTT16=
EXTT17=
EXTT18=
EXTT19=
PLAYORDER=
